<svg width="84" height="23" viewBox="0 0 84 23" fill="none" xmlns="http://www.w3.org/2000/svg">
<mask id="path-1-outside-1_35_65" maskUnits="userSpaceOnUse" x="0.371887" y="0.7164" width="84" height="22" fill="black">
<rect fill="white" x="0.371887" y="0.7164" width="84" height="22"/>
<path d="M10.1496 8.47422L10.034 8.47365C9.82544 8.91505 9.59576 9.39585 9.34495 9.91604C9.09413 10.4362 8.83026 10.988 8.55332 11.5712C8.2797 12.1387 8.00753 12.7299 7.73681 13.3448L6.75044 16.0182C6.60699 16.3336 6.47163 16.641 6.34435 16.9406C6.22992 17.2403 6.11238 17.5241 5.99174 17.7921C5.88394 18.0602 5.7778 18.3204 5.67333 18.5727C5.56885 18.825 5.46603 19.0694 5.36487 19.3059C5.18458 19.3682 4.98503 19.4305 4.76621 19.4926C4.54738 19.5547 4.29665 19.5851 4.01401 19.5837C3.37166 19.5805 2.9181 19.444 2.65333 19.1741C2.39188 18.8884 2.31259 18.5008 2.41545 18.0115C2.4619 17.7905 2.53405 17.5697 2.6319 17.3489C2.72974 17.1282 2.8423 16.868 2.96958 16.5685C3.17853 16.0639 3.46874 15.4174 3.8402 14.6292C4.21497 13.8252 4.62064 12.9661 5.05718 12.0518C5.50989 11.1217 5.9512 10.2153 6.38111 9.33261C6.82386 8.44994 7.22102 7.66184 7.57257 6.96833C7.92743 6.25904 8.1911 5.7389 8.36355 5.40793C8.61513 5.25116 8.98068 5.10285 9.46019 4.963C9.9397 4.82316 10.3979 4.75431 10.8347 4.75646C11.477 4.75962 12.0238 4.88082 12.4751 5.12006C12.9297 5.34351 13.1681 5.70811 13.1904 6.21385C13.2524 7.02001 13.2974 7.96829 13.3254 9.05869C13.3696 10.1334 13.4021 11.2633 13.423 12.4485C13.4601 13.6179 13.4894 14.7637 13.5107 15.8856C13.5354 16.9918 13.5512 17.9874 13.5581 18.8722C13.3608 19.0767 13.093 19.2492 12.7548 19.3897C12.4166 19.5303 12.0355 19.5995 11.6116 19.5974C10.9821 19.5943 10.5718 19.4659 10.3808 19.2121C10.1931 18.9426 10.0979 18.5392 10.0951 18.0019L10.0911 15.7266L10.2184 13.286C10.2193 12.6697 10.2153 12.0772 10.2063 11.5083C10.1972 10.9394 10.188 10.4021 10.1786 9.89645C10.1724 9.37499 10.1628 8.90091 10.1496 8.47422ZM5.23546 16.3426L7.23705 13.1528L11.4766 13.1736L11.2093 16.372L5.23546 16.3426Z"/>
<path d="M25.5515 12.0105L25.0936 14.1888L21.8176 14.1726L22.2506 12.1127C22.3535 11.6234 22.3061 11.2677 22.1084 11.0455C21.927 10.8076 21.6435 10.6877 21.2581 10.6858C21.0012 10.6845 20.7488 10.7228 20.5009 10.8005C20.2659 10.8784 20.0324 10.9799 19.8003 11.1052L19.1582 14.1595L15.8823 14.1434L16.6388 10.5445C16.7284 10.1183 16.872 9.77141 17.0698 9.50376C17.2803 9.23618 17.5373 8.99253 17.8407 8.77281C18.3571 8.39613 18.9726 8.09895 19.6871 7.88125C20.4049 7.64777 21.1621 7.533 21.9586 7.53692C23.4103 7.54407 24.4451 7.94419 25.0628 8.73728C25.6839 9.51459 25.8468 10.6057 25.5515 12.0105ZM16.0963 13.1253L19.3723 13.1414L18.0633 19.3685C17.912 19.4151 17.6965 19.4615 17.4167 19.5075C17.1499 19.5536 16.8622 19.5759 16.5539 19.5743C15.9244 19.5712 15.4901 19.4348 15.251 19.165C15.0248 18.8953 14.988 18.3974 15.1407 17.6713L16.0963 13.1253ZM22.0316 13.1545L25.3076 13.1707L23.9986 19.3977C23.8473 19.4444 23.6318 19.4907 23.3521 19.5367C23.0852 19.5828 22.7976 19.6051 22.4892 19.6036C21.8597 19.6005 21.4255 19.464 21.1864 19.1942C20.9602 18.9245 20.9234 18.4266 21.076 17.7005L22.0316 13.1545Z"/>
<path d="M36.9197 13.7256C36.6543 14.9884 36.2134 16.0765 35.597 16.9899C34.9934 17.9034 34.2595 18.6108 33.3954 19.1122C32.5474 19.5978 31.6095 19.8381 30.5818 19.833C29.5668 19.8281 28.7318 19.579 28.0767 19.086C27.4216 18.5929 26.9783 17.8876 26.7468 16.97C26.5281 16.0525 26.5532 14.9544 26.822 13.6759C27.0841 12.4289 27.5234 11.3487 28.1398 10.4352C28.7562 9.52182 29.4948 8.82231 30.3556 8.33672C31.2198 7.83535 32.1529 7.58713 33.155 7.59206C34.1699 7.59706 34.9968 7.85395 35.6358 8.36273C36.2876 8.87157 36.7292 9.58479 36.9607 10.5024C37.1922 11.42 37.1786 12.4944 36.9197 13.7256ZM32.493 10.7411C31.9663 10.7385 31.494 10.9969 31.0762 11.5163C30.6745 12.0199 30.3741 12.7453 30.175 13.6924C29.9693 14.671 29.9611 15.4136 30.1504 15.9202C30.3397 16.4267 30.7041 16.6814 31.2437 16.684C31.7833 16.6867 32.2539 16.4362 32.6556 15.9325C33.0606 15.4131 33.3643 14.6719 33.5667 13.7091C33.7624 12.7778 33.7609 12.0509 33.5621 11.5285C33.3761 11.0062 33.0197 10.7437 32.493 10.7411Z"/>
<path d="M48.0777 12.1214L47.6198 14.2997L44.3438 14.2836L44.7768 12.2237C44.8797 11.7344 44.8323 11.3786 44.6347 11.1564C44.4532 10.9185 44.1698 10.7986 43.7843 10.7967C43.5274 10.7954 43.275 10.8337 43.0272 10.9115C42.7922 10.9893 42.5586 11.0909 42.3265 11.2162L41.6845 14.2705L38.4085 14.2543L39.165 10.6555C39.2546 10.2293 39.3983 9.88235 39.596 9.61471C39.8066 9.34713 40.0635 9.10348 40.3669 8.88376C40.8834 8.50708 41.4988 8.2099 42.2133 7.9922C42.9312 7.75872 43.6883 7.64394 44.4848 7.64787C45.9366 7.65502 46.9713 8.05514 47.5891 8.84823C48.2102 9.62554 48.373 10.7166 48.0777 12.1214ZM38.6225 13.2362L41.8985 13.2524L40.5895 19.4794C40.4382 19.5261 40.2227 19.5724 39.943 19.6184C39.6761 19.6645 39.3885 19.6868 39.0802 19.6853C38.4506 19.6822 38.0164 19.5457 37.7773 19.276C37.5511 19.0062 37.5143 18.5083 37.6669 17.7822L38.6225 13.2362ZM44.5578 13.2655L47.8338 13.2816L46.5248 19.5086C46.3736 19.5553 46.1581 19.6017 45.8783 19.6477C45.6114 19.6938 45.3238 19.716 45.0155 19.7145C44.386 19.7114 43.9517 19.575 43.7126 19.3052C43.4864 19.0355 43.4496 18.5375 43.6022 17.8115L44.5578 13.2655Z"/>
<path d="M51.5572 4.83852C51.6833 4.23871 51.9564 3.73442 52.3767 3.32567C52.797 2.91691 53.2705 2.71383 53.7973 2.71642C54.324 2.71902 54.7113 2.92634 54.959 3.33838C55.2068 3.75043 55.2676 4.25636 55.1415 4.85618C55.0187 5.44021 54.7455 5.9445 54.3219 6.36904C53.9016 6.77779 53.4281 6.98087 52.9014 6.97828C52.3747 6.97568 51.9874 6.76836 51.7397 6.35632C51.4952 5.92849 51.4344 5.42256 51.5572 4.83852ZM49.9345 13.292L53.2105 13.3081L51.9015 19.5351C51.7502 19.5818 51.5347 19.6281 51.255 19.6742C50.9881 19.7202 50.7005 19.7425 50.3921 19.741C49.7626 19.7379 49.3283 19.6015 49.0893 19.3317C48.863 19.0619 48.8262 18.564 48.9789 17.8379L49.9345 13.292ZM52.7675 15.4153L49.4915 15.3992L51.0046 8.20141C51.1558 8.15475 51.3649 8.10838 51.6318 8.06229C51.9116 8.01627 52.2056 7.99401 52.5139 7.99553C53.1563 7.99869 53.5906 8.13514 53.8168 8.40487C54.0463 8.65882 54.0831 9.15673 53.9272 9.89861L52.7675 15.4153Z"/>
<path d="M64.4319 11.7043L63.8694 14.3798L60.5934 14.3636L61.0414 12.2327C61.1409 11.7592 61.0966 11.4192 60.9085 11.2129C60.7366 10.9908 60.49 10.879 60.1688 10.8774C59.9247 10.8762 59.7028 10.9225 59.5031 11.0163C59.3066 11.0944 59.1423 11.1726 59.0101 11.2509L58.358 14.3526L55.0821 14.3365L55.8386 10.7376C55.9282 10.3114 56.0718 9.96448 56.2696 9.69683C56.4801 9.42925 56.7371 9.1856 57.0405 8.96588C57.5569 8.5892 58.1596 8.29195 58.8484 8.07413C59.5533 7.84059 60.2591 7.72556 60.9657 7.72904C61.5695 7.73201 62.1227 7.85325 62.6254 8.09274C63.1314 8.31644 63.5561 8.68196 63.8996 9.18928C63.9791 9.30028 64.0586 9.41128 64.1382 9.52227C64.2306 9.63334 64.2892 9.75213 64.3141 9.87866C64.399 10.1477 64.4532 10.4403 64.4768 10.7564C64.5132 11.0726 64.4982 11.3886 64.4319 11.7043ZM69.8536 12.1576L69.3808 14.4069L66.1048 14.3908L66.5528 12.2598C66.6523 11.7863 66.6209 11.4464 66.4585 11.2402C66.2994 11.0182 66.0528 10.9064 65.7188 10.9047C65.4747 10.9035 65.2302 10.9655 64.9852 11.0907C64.7436 11.2002 64.5372 11.3256 64.366 11.4669L63.0467 9.20878C63.5793 8.81638 64.1452 8.47944 64.7445 8.19798C65.36 7.90079 66.0724 7.75419 66.8818 7.75818C67.537 7.7614 68.1302 7.90654 68.6614 8.19357C69.2055 8.48067 69.5958 8.94872 69.8323 9.59772C70.0722 10.2309 70.0793 11.0842 69.8536 12.1576ZM55.2961 13.3184L58.5721 13.3345L57.2631 19.5615C57.1118 19.6082 56.8963 19.6545 56.6165 19.7006C56.3497 19.7467 56.062 19.7689 55.7537 19.7674C55.1242 19.7643 54.6899 19.6279 54.4508 19.3581C54.2246 19.0883 54.1878 18.5904 54.3405 17.8643L55.2961 13.3184ZM60.8075 13.3455L64.0834 13.3616L62.7745 19.5887C62.6232 19.6353 62.4077 19.6817 62.1279 19.7277C61.861 19.7738 61.5734 19.7961 61.2651 19.7946C60.6356 19.7915 60.2013 19.655 59.9622 19.3852C59.736 19.1155 59.6992 18.6176 59.8518 17.8915L60.8075 13.3455ZM66.3188 13.3727L69.5948 13.3888L68.2858 19.6158C68.1346 19.6625 67.9191 19.7088 67.6393 19.7549C67.3724 19.8009 67.0848 19.8232 66.7765 19.8217C66.147 19.8186 65.7127 19.6822 65.4736 19.4124C65.2474 19.1426 65.2106 18.6447 65.3632 17.9186L66.3188 13.3727Z"/>
<path d="M81.2006 13.9437C80.9352 15.2065 80.4943 16.2945 79.8779 17.208C79.2743 18.1215 78.5405 18.8289 77.6763 19.3303C76.8283 19.8159 75.8904 20.0562 74.8627 20.0511C73.8478 20.0461 73.0127 19.7971 72.3576 19.3041C71.7025 18.811 71.2592 18.1057 71.0277 17.1881C70.809 16.2705 70.8341 15.1725 71.1029 13.8939C71.365 12.647 71.8043 11.5668 72.4207 10.6533C73.0371 9.73992 73.7757 9.04041 74.6365 8.55482C75.5007 8.05344 76.4338 7.80522 77.4359 7.81016C78.4508 7.81516 79.2777 8.07205 79.9167 8.58082C80.5685 9.08967 81.0101 9.80289 81.2416 10.7205C81.4731 11.6381 81.4594 12.7125 81.2006 13.9437ZM76.7739 10.9592C76.2472 10.9566 75.7749 11.215 75.3571 11.7344C74.9554 12.238 74.655 12.9634 74.4559 13.9105C74.2502 14.8891 74.242 15.6317 74.4313 16.1383C74.6206 16.6448 74.9851 16.8995 75.5246 16.9021C76.0642 16.9048 76.5348 16.6543 76.9365 16.1506C77.3415 15.6312 77.6451 14.89 77.8476 13.9272C78.0433 12.9959 78.0418 12.269 77.843 11.7466C77.657 11.2243 77.3006 10.9618 76.7739 10.9592Z"/>
</mask>
<path d="M10.1496 8.47422L10.034 8.47365C9.82544 8.91505 9.59576 9.39585 9.34495 9.91604C9.09413 10.4362 8.83026 10.988 8.55332 11.5712C8.2797 12.1387 8.00753 12.7299 7.73681 13.3448L6.75044 16.0182C6.60699 16.3336 6.47163 16.641 6.34435 16.9406C6.22992 17.2403 6.11238 17.5241 5.99174 17.7921C5.88394 18.0602 5.7778 18.3204 5.67333 18.5727C5.56885 18.825 5.46603 19.0694 5.36487 19.3059C5.18458 19.3682 4.98503 19.4305 4.76621 19.4926C4.54738 19.5547 4.29665 19.5851 4.01401 19.5837C3.37166 19.5805 2.9181 19.444 2.65333 19.1741C2.39188 18.8884 2.31259 18.5008 2.41545 18.0115C2.4619 17.7905 2.53405 17.5697 2.6319 17.3489C2.72974 17.1282 2.8423 16.868 2.96958 16.5685C3.17853 16.0639 3.46874 15.4174 3.8402 14.6292C4.21497 13.8252 4.62064 12.9661 5.05718 12.0518C5.50989 11.1217 5.9512 10.2153 6.38111 9.33261C6.82386 8.44994 7.22102 7.66184 7.57257 6.96833C7.92743 6.25904 8.1911 5.7389 8.36355 5.40793C8.61513 5.25116 8.98068 5.10285 9.46019 4.963C9.9397 4.82316 10.3979 4.75431 10.8347 4.75646C11.477 4.75962 12.0238 4.88082 12.4751 5.12006C12.9297 5.34351 13.1681 5.70811 13.1904 6.21385C13.2524 7.02001 13.2974 7.96829 13.3254 9.05869C13.3696 10.1334 13.4021 11.2633 13.423 12.4485C13.4601 13.6179 13.4894 14.7637 13.5107 15.8856C13.5354 16.9918 13.5512 17.9874 13.5581 18.8722C13.3608 19.0767 13.093 19.2492 12.7548 19.3897C12.4166 19.5303 12.0355 19.5995 11.6116 19.5974C10.9821 19.5943 10.5718 19.4659 10.3808 19.2121C10.1931 18.9426 10.0979 18.5392 10.0951 18.0019L10.0911 15.7266L10.2184 13.286C10.2193 12.6697 10.2153 12.0772 10.2063 11.5083C10.1972 10.9394 10.188 10.4021 10.1786 9.89645C10.1724 9.37499 10.1628 8.90091 10.1496 8.47422ZM5.23546 16.3426L7.23705 13.1528L11.4766 13.1736L11.2093 16.372L5.23546 16.3426Z" fill="white"/>
<path d="M25.5515 12.0105L25.0936 14.1888L21.8176 14.1726L22.2506 12.1127C22.3535 11.6234 22.3061 11.2677 22.1084 11.0455C21.927 10.8076 21.6435 10.6877 21.2581 10.6858C21.0012 10.6845 20.7488 10.7228 20.5009 10.8005C20.2659 10.8784 20.0324 10.9799 19.8003 11.1052L19.1582 14.1595L15.8823 14.1434L16.6388 10.5445C16.7284 10.1183 16.872 9.77141 17.0698 9.50376C17.2803 9.23618 17.5373 8.99253 17.8407 8.77281C18.3571 8.39613 18.9726 8.09895 19.6871 7.88125C20.4049 7.64777 21.1621 7.533 21.9586 7.53692C23.4103 7.54407 24.4451 7.94419 25.0628 8.73728C25.6839 9.51459 25.8468 10.6057 25.5515 12.0105ZM16.0963 13.1253L19.3723 13.1414L18.0633 19.3685C17.912 19.4151 17.6965 19.4615 17.4167 19.5075C17.1499 19.5536 16.8622 19.5759 16.5539 19.5743C15.9244 19.5712 15.4901 19.4348 15.251 19.165C15.0248 18.8953 14.988 18.3974 15.1407 17.6713L16.0963 13.1253ZM22.0316 13.1545L25.3076 13.1707L23.9986 19.3977C23.8473 19.4444 23.6318 19.4907 23.3521 19.5367C23.0852 19.5828 22.7976 19.6051 22.4892 19.6036C21.8597 19.6005 21.4255 19.464 21.1864 19.1942C20.9602 18.9245 20.9234 18.4266 21.076 17.7005L22.0316 13.1545Z" fill="white"/>
<path d="M36.9197 13.7256C36.6543 14.9884 36.2134 16.0765 35.597 16.9899C34.9934 17.9034 34.2595 18.6108 33.3954 19.1122C32.5474 19.5978 31.6095 19.8381 30.5818 19.833C29.5668 19.8281 28.7318 19.579 28.0767 19.086C27.4216 18.5929 26.9783 17.8876 26.7468 16.97C26.5281 16.0525 26.5532 14.9544 26.822 13.6759C27.0841 12.4289 27.5234 11.3487 28.1398 10.4352C28.7562 9.52182 29.4948 8.82231 30.3556 8.33672C31.2198 7.83535 32.1529 7.58713 33.155 7.59206C34.1699 7.59706 34.9968 7.85395 35.6358 8.36273C36.2876 8.87157 36.7292 9.58479 36.9607 10.5024C37.1922 11.42 37.1786 12.4944 36.9197 13.7256ZM32.493 10.7411C31.9663 10.7385 31.494 10.9969 31.0762 11.5163C30.6745 12.0199 30.3741 12.7453 30.175 13.6924C29.9693 14.671 29.9611 15.4136 30.1504 15.9202C30.3397 16.4267 30.7041 16.6814 31.2437 16.684C31.7833 16.6867 32.2539 16.4362 32.6556 15.9325C33.0606 15.4131 33.3643 14.6719 33.5667 13.7091C33.7624 12.7778 33.7609 12.0509 33.5621 11.5285C33.3761 11.0062 33.0197 10.7437 32.493 10.7411Z" fill="white"/>
<path d="M48.0777 12.1214L47.6198 14.2997L44.3438 14.2836L44.7768 12.2237C44.8797 11.7344 44.8323 11.3786 44.6347 11.1564C44.4532 10.9185 44.1698 10.7986 43.7843 10.7967C43.5274 10.7954 43.275 10.8337 43.0272 10.9115C42.7922 10.9893 42.5586 11.0909 42.3265 11.2162L41.6845 14.2705L38.4085 14.2543L39.165 10.6555C39.2546 10.2293 39.3983 9.88235 39.596 9.61471C39.8066 9.34713 40.0635 9.10348 40.3669 8.88376C40.8834 8.50708 41.4988 8.2099 42.2133 7.9922C42.9312 7.75872 43.6883 7.64394 44.4848 7.64787C45.9366 7.65502 46.9713 8.05514 47.5891 8.84823C48.2102 9.62554 48.373 10.7166 48.0777 12.1214ZM38.6225 13.2362L41.8985 13.2524L40.5895 19.4794C40.4382 19.5261 40.2227 19.5724 39.943 19.6184C39.6761 19.6645 39.3885 19.6868 39.0802 19.6853C38.4506 19.6822 38.0164 19.5457 37.7773 19.276C37.5511 19.0062 37.5143 18.5083 37.6669 17.7822L38.6225 13.2362ZM44.5578 13.2655L47.8338 13.2816L46.5248 19.5086C46.3736 19.5553 46.1581 19.6017 45.8783 19.6477C45.6114 19.6938 45.3238 19.716 45.0155 19.7145C44.386 19.7114 43.9517 19.575 43.7126 19.3052C43.4864 19.0355 43.4496 18.5375 43.6022 17.8115L44.5578 13.2655Z" fill="white"/>
<path d="M51.5572 4.83852C51.6833 4.23871 51.9564 3.73442 52.3767 3.32567C52.797 2.91691 53.2705 2.71383 53.7973 2.71642C54.324 2.71902 54.7113 2.92634 54.959 3.33838C55.2068 3.75043 55.2676 4.25636 55.1415 4.85618C55.0187 5.44021 54.7455 5.9445 54.3219 6.36904C53.9016 6.77779 53.4281 6.98087 52.9014 6.97828C52.3747 6.97568 51.9874 6.76836 51.7397 6.35632C51.4952 5.92849 51.4344 5.42256 51.5572 4.83852ZM49.9345 13.292L53.2105 13.3081L51.9015 19.5351C51.7502 19.5818 51.5347 19.6281 51.255 19.6742C50.9881 19.7202 50.7005 19.7425 50.3921 19.741C49.7626 19.7379 49.3283 19.6015 49.0893 19.3317C48.863 19.0619 48.8262 18.564 48.9789 17.8379L49.9345 13.292ZM52.7675 15.4153L49.4915 15.3992L51.0046 8.20141C51.1558 8.15475 51.3649 8.10838 51.6318 8.06229C51.9116 8.01627 52.2056 7.99401 52.5139 7.99553C53.1563 7.99869 53.5906 8.13514 53.8168 8.40487C54.0463 8.65882 54.0831 9.15673 53.9272 9.89861L52.7675 15.4153Z" fill="white"/>
<path d="M64.4319 11.7043L63.8694 14.3798L60.5934 14.3636L61.0414 12.2327C61.1409 11.7592 61.0966 11.4192 60.9085 11.2129C60.7366 10.9908 60.49 10.879 60.1688 10.8774C59.9247 10.8762 59.7028 10.9225 59.5031 11.0163C59.3066 11.0944 59.1423 11.1726 59.0101 11.2509L58.358 14.3526L55.0821 14.3365L55.8386 10.7376C55.9282 10.3114 56.0718 9.96448 56.2696 9.69683C56.4801 9.42925 56.7371 9.1856 57.0405 8.96588C57.5569 8.5892 58.1596 8.29195 58.8484 8.07413C59.5533 7.84059 60.2591 7.72556 60.9657 7.72904C61.5695 7.73201 62.1227 7.85325 62.6254 8.09274C63.1314 8.31644 63.5561 8.68196 63.8996 9.18928C63.9791 9.30028 64.0586 9.41128 64.1382 9.52227C64.2306 9.63334 64.2892 9.75213 64.3141 9.87866C64.399 10.1477 64.4532 10.4403 64.4768 10.7564C64.5132 11.0726 64.4982 11.3886 64.4319 11.7043ZM69.8536 12.1576L69.3808 14.4069L66.1048 14.3908L66.5528 12.2598C66.6523 11.7863 66.6209 11.4464 66.4585 11.2402C66.2994 11.0182 66.0528 10.9064 65.7188 10.9047C65.4747 10.9035 65.2302 10.9655 64.9852 11.0907C64.7436 11.2002 64.5372 11.3256 64.366 11.4669L63.0467 9.20878C63.5793 8.81638 64.1452 8.47944 64.7445 8.19798C65.36 7.90079 66.0724 7.75419 66.8818 7.75818C67.537 7.7614 68.1302 7.90654 68.6614 8.19357C69.2055 8.48067 69.5958 8.94872 69.8323 9.59772C70.0722 10.2309 70.0793 11.0842 69.8536 12.1576ZM55.2961 13.3184L58.5721 13.3345L57.2631 19.5615C57.1118 19.6082 56.8963 19.6545 56.6165 19.7006C56.3497 19.7467 56.062 19.7689 55.7537 19.7674C55.1242 19.7643 54.6899 19.6279 54.4508 19.3581C54.2246 19.0883 54.1878 18.5904 54.3405 17.8643L55.2961 13.3184ZM60.8075 13.3455L64.0834 13.3616L62.7745 19.5887C62.6232 19.6353 62.4077 19.6817 62.1279 19.7277C61.861 19.7738 61.5734 19.7961 61.2651 19.7946C60.6356 19.7915 60.2013 19.655 59.9622 19.3852C59.736 19.1155 59.6992 18.6176 59.8518 17.8915L60.8075 13.3455ZM66.3188 13.3727L69.5948 13.3888L68.2858 19.6158C68.1346 19.6625 67.9191 19.7088 67.6393 19.7549C67.3724 19.8009 67.0848 19.8232 66.7765 19.8217C66.147 19.8186 65.7127 19.6822 65.4736 19.4124C65.2474 19.1426 65.2106 18.6447 65.3632 17.9186L66.3188 13.3727Z" fill="white"/>
<path d="M81.2006 13.9437C80.9352 15.2065 80.4943 16.2945 79.8779 17.208C79.2743 18.1215 78.5405 18.8289 77.6763 19.3303C76.8283 19.8159 75.8904 20.0562 74.8627 20.0511C73.8478 20.0461 73.0127 19.7971 72.3576 19.3041C71.7025 18.811 71.2592 18.1057 71.0277 17.1881C70.809 16.2705 70.8341 15.1725 71.1029 13.8939C71.365 12.647 71.8043 11.5668 72.4207 10.6533C73.0371 9.73992 73.7757 9.04041 74.6365 8.55482C75.5007 8.05344 76.4338 7.80522 77.4359 7.81016C78.4508 7.81516 79.2777 8.07205 79.9167 8.58082C80.5685 9.08967 81.0101 9.80289 81.2416 10.7205C81.4731 11.6381 81.4594 12.7125 81.2006 13.9437ZM76.7739 10.9592C76.2472 10.9566 75.7749 11.215 75.3571 11.7344C74.9554 12.238 74.655 12.9634 74.4559 13.9105C74.2502 14.8891 74.242 15.6317 74.4313 16.1383C74.6206 16.6448 74.9851 16.8995 75.5246 16.9021C76.0642 16.9048 76.5348 16.6543 76.9365 16.1506C77.3415 15.6312 77.6451 14.89 77.8476 13.9272C78.0433 12.9959 78.0418 12.269 77.843 11.7466C77.657 11.2243 77.3006 10.9618 76.7739 10.9592Z" fill="white"/>
<path d="M10.1496 8.47422L10.034 8.47365C9.82544 8.91505 9.59576 9.39585 9.34495 9.91604C9.09413 10.4362 8.83026 10.988 8.55332 11.5712C8.2797 12.1387 8.00753 12.7299 7.73681 13.3448L6.75044 16.0182C6.60699 16.3336 6.47163 16.641 6.34435 16.9406C6.22992 17.2403 6.11238 17.5241 5.99174 17.7921C5.88394 18.0602 5.7778 18.3204 5.67333 18.5727C5.56885 18.825 5.46603 19.0694 5.36487 19.3059C5.18458 19.3682 4.98503 19.4305 4.76621 19.4926C4.54738 19.5547 4.29665 19.5851 4.01401 19.5837C3.37166 19.5805 2.9181 19.444 2.65333 19.1741C2.39188 18.8884 2.31259 18.5008 2.41545 18.0115C2.4619 17.7905 2.53405 17.5697 2.6319 17.3489C2.72974 17.1282 2.8423 16.868 2.96958 16.5685C3.17853 16.0639 3.46874 15.4174 3.8402 14.6292C4.21497 13.8252 4.62064 12.9661 5.05718 12.0518C5.50989 11.1217 5.9512 10.2153 6.38111 9.33261C6.82386 8.44994 7.22102 7.66184 7.57257 6.96833C7.92743 6.25904 8.1911 5.7389 8.36355 5.40793C8.61513 5.25116 8.98068 5.10285 9.46019 4.963C9.9397 4.82316 10.3979 4.75431 10.8347 4.75646C11.477 4.75962 12.0238 4.88082 12.4751 5.12006C12.9297 5.34351 13.1681 5.70811 13.1904 6.21385C13.2524 7.02001 13.2974 7.96829 13.3254 9.05869C13.3696 10.1334 13.4021 11.2633 13.423 12.4485C13.4601 13.6179 13.4894 14.7637 13.5107 15.8856C13.5354 16.9918 13.5512 17.9874 13.5581 18.8722C13.3608 19.0767 13.093 19.2492 12.7548 19.3897C12.4166 19.5303 12.0355 19.5995 11.6116 19.5974C10.9821 19.5943 10.5718 19.4659 10.3808 19.2121C10.1931 18.9426 10.0979 18.5392 10.0951 18.0019L10.0911 15.7266L10.2184 13.286C10.2193 12.6697 10.2153 12.0772 10.2063 11.5083C10.1972 10.9394 10.188 10.4021 10.1786 9.89645C10.1724 9.37499 10.1628 8.90091 10.1496 8.47422ZM5.23546 16.3426L7.23705 13.1528L11.4766 13.1736L11.2093 16.372L5.23546 16.3426Z" stroke="black" stroke-width="4" mask="url(#path-1-outside-1_35_65)"/>
<path d="M25.5515 12.0105L25.0936 14.1888L21.8176 14.1726L22.2506 12.1127C22.3535 11.6234 22.3061 11.2677 22.1084 11.0455C21.927 10.8076 21.6435 10.6877 21.2581 10.6858C21.0012 10.6845 20.7488 10.7228 20.5009 10.8005C20.2659 10.8784 20.0324 10.9799 19.8003 11.1052L19.1582 14.1595L15.8823 14.1434L16.6388 10.5445C16.7284 10.1183 16.872 9.77141 17.0698 9.50376C17.2803 9.23618 17.5373 8.99253 17.8407 8.77281C18.3571 8.39613 18.9726 8.09895 19.6871 7.88125C20.4049 7.64777 21.1621 7.533 21.9586 7.53692C23.4103 7.54407 24.4451 7.94419 25.0628 8.73728C25.6839 9.51459 25.8468 10.6057 25.5515 12.0105ZM16.0963 13.1253L19.3723 13.1414L18.0633 19.3685C17.912 19.4151 17.6965 19.4615 17.4167 19.5075C17.1499 19.5536 16.8622 19.5759 16.5539 19.5743C15.9244 19.5712 15.4901 19.4348 15.251 19.165C15.0248 18.8953 14.988 18.3974 15.1407 17.6713L16.0963 13.1253ZM22.0316 13.1545L25.3076 13.1707L23.9986 19.3977C23.8473 19.4444 23.6318 19.4907 23.3521 19.5367C23.0852 19.5828 22.7976 19.6051 22.4892 19.6036C21.8597 19.6005 21.4255 19.464 21.1864 19.1942C20.9602 18.9245 20.9234 18.4266 21.076 17.7005L22.0316 13.1545Z" stroke="black" stroke-width="4" mask="url(#path-1-outside-1_35_65)"/>
<path d="M36.9197 13.7256C36.6543 14.9884 36.2134 16.0765 35.597 16.9899C34.9934 17.9034 34.2595 18.6108 33.3954 19.1122C32.5474 19.5978 31.6095 19.8381 30.5818 19.833C29.5668 19.8281 28.7318 19.579 28.0767 19.086C27.4216 18.5929 26.9783 17.8876 26.7468 16.97C26.5281 16.0525 26.5532 14.9544 26.822 13.6759C27.0841 12.4289 27.5234 11.3487 28.1398 10.4352C28.7562 9.52182 29.4948 8.82231 30.3556 8.33672C31.2198 7.83535 32.1529 7.58713 33.155 7.59206C34.1699 7.59706 34.9968 7.85395 35.6358 8.36273C36.2876 8.87157 36.7292 9.58479 36.9607 10.5024C37.1922 11.42 37.1786 12.4944 36.9197 13.7256ZM32.493 10.7411C31.9663 10.7385 31.494 10.9969 31.0762 11.5163C30.6745 12.0199 30.3741 12.7453 30.175 13.6924C29.9693 14.671 29.9611 15.4136 30.1504 15.9202C30.3397 16.4267 30.7041 16.6814 31.2437 16.684C31.7833 16.6867 32.2539 16.4362 32.6556 15.9325C33.0606 15.4131 33.3643 14.6719 33.5667 13.7091C33.7624 12.7778 33.7609 12.0509 33.5621 11.5285C33.3761 11.0062 33.0197 10.7437 32.493 10.7411Z" stroke="black" stroke-width="4" mask="url(#path-1-outside-1_35_65)"/>
<path d="M48.0777 12.1214L47.6198 14.2997L44.3438 14.2836L44.7768 12.2237C44.8797 11.7344 44.8323 11.3786 44.6347 11.1564C44.4532 10.9185 44.1698 10.7986 43.7843 10.7967C43.5274 10.7954 43.275 10.8337 43.0272 10.9115C42.7922 10.9893 42.5586 11.0909 42.3265 11.2162L41.6845 14.2705L38.4085 14.2543L39.165 10.6555C39.2546 10.2293 39.3983 9.88235 39.596 9.61471C39.8066 9.34713 40.0635 9.10348 40.3669 8.88376C40.8834 8.50708 41.4988 8.2099 42.2133 7.9922C42.9312 7.75872 43.6883 7.64394 44.4848 7.64787C45.9366 7.65502 46.9713 8.05514 47.5891 8.84823C48.2102 9.62554 48.373 10.7166 48.0777 12.1214ZM38.6225 13.2362L41.8985 13.2524L40.5895 19.4794C40.4382 19.5261 40.2227 19.5724 39.943 19.6184C39.6761 19.6645 39.3885 19.6868 39.0802 19.6853C38.4506 19.6822 38.0164 19.5457 37.7773 19.276C37.5511 19.0062 37.5143 18.5083 37.6669 17.7822L38.6225 13.2362ZM44.5578 13.2655L47.8338 13.2816L46.5248 19.5086C46.3736 19.5553 46.1581 19.6017 45.8783 19.6477C45.6114 19.6938 45.3238 19.716 45.0155 19.7145C44.386 19.7114 43.9517 19.575 43.7126 19.3052C43.4864 19.0355 43.4496 18.5375 43.6022 17.8115L44.5578 13.2655Z" stroke="black" stroke-width="4" mask="url(#path-1-outside-1_35_65)"/>
<path d="M51.5572 4.83852C51.6833 4.23871 51.9564 3.73442 52.3767 3.32567C52.797 2.91691 53.2705 2.71383 53.7973 2.71642C54.324 2.71902 54.7113 2.92634 54.959 3.33838C55.2068 3.75043 55.2676 4.25636 55.1415 4.85618C55.0187 5.44021 54.7455 5.9445 54.3219 6.36904C53.9016 6.77779 53.4281 6.98087 52.9014 6.97828C52.3747 6.97568 51.9874 6.76836 51.7397 6.35632C51.4952 5.92849 51.4344 5.42256 51.5572 4.83852ZM49.9345 13.292L53.2105 13.3081L51.9015 19.5351C51.7502 19.5818 51.5347 19.6281 51.255 19.6742C50.9881 19.7202 50.7005 19.7425 50.3921 19.741C49.7626 19.7379 49.3283 19.6015 49.0893 19.3317C48.863 19.0619 48.8262 18.564 48.9789 17.8379L49.9345 13.292ZM52.7675 15.4153L49.4915 15.3992L51.0046 8.20141C51.1558 8.15475 51.3649 8.10838 51.6318 8.06229C51.9116 8.01627 52.2056 7.99401 52.5139 7.99553C53.1563 7.99869 53.5906 8.13514 53.8168 8.40487C54.0463 8.65882 54.0831 9.15673 53.9272 9.89861L52.7675 15.4153Z" stroke="black" stroke-width="4" mask="url(#path-1-outside-1_35_65)"/>
<path d="M64.4319 11.7043L63.8694 14.3798L60.5934 14.3636L61.0414 12.2327C61.1409 11.7592 61.0966 11.4192 60.9085 11.2129C60.7366 10.9908 60.49 10.879 60.1688 10.8774C59.9247 10.8762 59.7028 10.9225 59.5031 11.0163C59.3066 11.0944 59.1423 11.1726 59.0101 11.2509L58.358 14.3526L55.0821 14.3365L55.8386 10.7376C55.9282 10.3114 56.0718 9.96448 56.2696 9.69683C56.4801 9.42925 56.7371 9.1856 57.0405 8.96588C57.5569 8.5892 58.1596 8.29195 58.8484 8.07413C59.5533 7.84059 60.2591 7.72556 60.9657 7.72904C61.5695 7.73201 62.1227 7.85325 62.6254 8.09274C63.1314 8.31644 63.5561 8.68196 63.8996 9.18928C63.9791 9.30028 64.0586 9.41128 64.1382 9.52227C64.2306 9.63334 64.2892 9.75213 64.3141 9.87866C64.399 10.1477 64.4532 10.4403 64.4768 10.7564C64.5132 11.0726 64.4982 11.3886 64.4319 11.7043ZM69.8536 12.1576L69.3808 14.4069L66.1048 14.3908L66.5528 12.2598C66.6523 11.7863 66.6209 11.4464 66.4585 11.2402C66.2994 11.0182 66.0528 10.9064 65.7188 10.9047C65.4747 10.9035 65.2302 10.9655 64.9852 11.0907C64.7436 11.2002 64.5372 11.3256 64.366 11.4669L63.0467 9.20878C63.5793 8.81638 64.1452 8.47944 64.7445 8.19798C65.36 7.90079 66.0724 7.75419 66.8818 7.75818C67.537 7.7614 68.1302 7.90654 68.6614 8.19357C69.2055 8.48067 69.5958 8.94872 69.8323 9.59772C70.0722 10.2309 70.0793 11.0842 69.8536 12.1576ZM55.2961 13.3184L58.5721 13.3345L57.2631 19.5615C57.1118 19.6082 56.8963 19.6545 56.6165 19.7006C56.3497 19.7467 56.062 19.7689 55.7537 19.7674C55.1242 19.7643 54.6899 19.6279 54.4508 19.3581C54.2246 19.0883 54.1878 18.5904 54.3405 17.8643L55.2961 13.3184ZM60.8075 13.3455L64.0834 13.3616L62.7745 19.5887C62.6232 19.6353 62.4077 19.6817 62.1279 19.7277C61.861 19.7738 61.5734 19.7961 61.2651 19.7946C60.6356 19.7915 60.2013 19.655 59.9622 19.3852C59.736 19.1155 59.6992 18.6176 59.8518 17.8915L60.8075 13.3455ZM66.3188 13.3727L69.5948 13.3888L68.2858 19.6158C68.1346 19.6625 67.9191 19.7088 67.6393 19.7549C67.3724 19.8009 67.0848 19.8232 66.7765 19.8217C66.147 19.8186 65.7127 19.6822 65.4736 19.4124C65.2474 19.1426 65.2106 18.6447 65.3632 17.9186L66.3188 13.3727Z" stroke="black" stroke-width="4" mask="url(#path-1-outside-1_35_65)"/>
<path d="M81.2006 13.9437C80.9352 15.2065 80.4943 16.2945 79.8779 17.208C79.2743 18.1215 78.5405 18.8289 77.6763 19.3303C76.8283 19.8159 75.8904 20.0562 74.8627 20.0511C73.8478 20.0461 73.0127 19.7971 72.3576 19.3041C71.7025 18.811 71.2592 18.1057 71.0277 17.1881C70.809 16.2705 70.8341 15.1725 71.1029 13.8939C71.365 12.647 71.8043 11.5668 72.4207 10.6533C73.0371 9.73992 73.7757 9.04041 74.6365 8.55482C75.5007 8.05344 76.4338 7.80522 77.4359 7.81016C78.4508 7.81516 79.2777 8.07205 79.9167 8.58082C80.5685 9.08967 81.0101 9.80289 81.2416 10.7205C81.4731 11.6381 81.4594 12.7125 81.2006 13.9437ZM76.7739 10.9592C76.2472 10.9566 75.7749 11.215 75.3571 11.7344C74.9554 12.238 74.655 12.9634 74.4559 13.9105C74.2502 14.8891 74.242 15.6317 74.4313 16.1383C74.6206 16.6448 74.9851 16.8995 75.5246 16.9021C76.0642 16.9048 76.5348 16.6543 76.9365 16.1506C77.3415 15.6312 77.6451 14.89 77.8476 13.9272C78.0433 12.9959 78.0418 12.269 77.843 11.7466C77.657 11.2243 77.3006 10.9618 76.7739 10.9592Z" stroke="black" stroke-width="4" mask="url(#path-1-outside-1_35_65)"/>
</svg>
