<svg width="28" height="24" viewBox="0 0 28 24" fill="none" xmlns="http://www.w3.org/2000/svg">
<path fill-rule="evenodd" clip-rule="evenodd" d="M26 8H2V21C2 21.796 2.316 22.559 2.879 23.121C3.441 23.684 4.204 24 5 24C9.184 24 18.816 24 23 24C23.796 24 24.559 23.684 25.121 23.121C25.684 22.559 26 21.796 26 21V8ZM11 12H17C17.552 12 18 11.552 18 11C18 10.448 17.552 10 17 10H11C10.448 10 10 10.448 10 11C10 11.552 10.448 12 11 12ZM2 6H26C27.105 6 28 5.105 28 4V2C28 0.895 27.105 0 26 0C21.866 0 6.134 0 2 0C0.895 0 0 0.895 0 2V4C0 5.105 0.895 6 2 6Z" fill="#FF9695"/>
</svg>
