<svg width="13" height="13" viewBox="0 0 13 13" fill="none" xmlns="http://www.w3.org/2000/svg">
<path d="M12.6631 11.0662C13.1123 11.5154 13.1123 12.214 12.6631 12.6631C12.4386 12.8877 12.1641 12.9875 11.8647 12.9875C11.5653 12.9875 11.2908 12.8877 11.0662 12.6631L6.5 8.09693L1.93378 12.6631C1.70921 12.8877 1.43474 12.9875 1.13532 12.9875C0.835893 12.9875 0.56142 12.8877 0.336852 12.6631C-0.112284 12.214 -0.112284 11.5154 0.336852 11.0662L4.90307 6.5L0.336852 1.93378C-0.112284 1.48465 -0.112284 0.785989 0.336852 0.336852C0.785989 -0.112284 1.48465 -0.112284 1.93378 0.336852L6.5 4.90307L11.0662 0.336852C11.5154 -0.112284 12.214 -0.112284 12.6631 0.336852C13.1123 0.785989 13.1123 1.48465 12.6631 1.93378L8.09693 6.5L12.6631 11.0662Z" fill="#FF7195"/>
</svg>
