<svg width="28" height="27" viewBox="0 0 28 27" fill="none" xmlns="http://www.w3.org/2000/svg">
<path d="M13.8415 0C10.5548 0.00013629 7.3754 1.16976 4.87218 3.29959C2.36896 5.42942 0.705261 8.38047 0.178777 11.6247C-0.347707 14.869 0.297377 18.1947 1.9986 21.0068C3.69983 23.819 6.34618 25.934 9.46415 26.9735C10.1562 27.0946 10.4158 26.6794 10.4158 26.316C10.4158 25.9873 10.3984 24.8973 10.3984 23.7381C6.92076 24.3782 6.02107 22.8903 5.74424 22.1117C5.43706 21.3545 4.95012 20.6835 4.32549 20.1566C3.84104 19.8971 3.14897 19.2569 4.30817 19.2396C4.75081 19.2877 5.17534 19.4417 5.54579 19.6887C5.91625 19.9356 6.22172 20.2682 6.43631 20.6583C6.62562 20.9984 6.88018 21.2978 7.18539 21.5393C7.49061 21.7809 7.84049 21.9598 8.21498 22.0659C8.58947 22.172 8.98121 22.2031 9.36776 22.1575C9.75431 22.112 10.1281 21.9905 10.4676 21.8003C10.5275 21.0966 10.8411 20.4387 11.35 19.949C8.2703 19.603 5.05217 18.4091 5.05217 13.1148C5.03271 11.7392 5.54033 10.4082 6.47091 9.39492C6.04776 8.19933 6.09727 6.88725 6.60933 5.72694C6.60933 5.72694 7.76851 5.36359 10.4157 7.14569C12.6806 6.52279 15.0716 6.52279 17.3364 7.14569C19.9836 5.3463 21.1428 5.72694 21.1428 5.72694C21.655 6.88723 21.7045 8.19934 21.2813 9.39492C22.2146 10.4065 22.7227 11.7386 22.7 13.1148C22.7 18.4264 19.4645 19.603 16.3848 19.949C16.7152 20.2838 16.9696 20.6858 17.1308 21.1276C17.292 21.5695 17.3562 22.0408 17.3191 22.5097C17.3191 24.361 17.3018 25.8489 17.3018 26.3161C17.3018 26.6794 17.5614 27.112 18.2534 26.9736C21.3659 25.9256 24.0047 23.8056 25.6986 20.992C27.3926 18.1784 28.0316 14.8544 27.5014 11.6133C26.9713 8.3722 25.3066 5.42498 22.8045 3.29774C20.3023 1.1705 17.1257 0.00170929 13.8415 0Z" fill="url(#paint0_linear_24_136)"/>
<defs>
<linearGradient id="paint0_linear_24_136" x1="13.8415" y1="0" x2="13.8415" y2="27" gradientUnits="userSpaceOnUse">
<stop stop-color="#FFC096"/>
<stop offset="1" stop-color="#FF7395"/>
</linearGradient>
</defs>
</svg>
