<svg width="18" height="17" viewBox="0 0 18 17" fill="none" xmlns="http://www.w3.org/2000/svg">
<path d="M9.2881 1.471L9.00855 1.74976L8.729 1.47021C7.76341 0.522202 6.46253 -0.0061634 5.10937 5.42602e-05C3.75621 0.00627192 2.46025 0.54657 1.50341 1.50341C0.54657 2.46025 0.00627193 3.75621 5.42602e-05 5.10937C-0.0061634 6.46253 0.522202 7.76341 1.47021 8.729L1.74976 9.00855L9.00855 16.2673L16.2673 9.00855L16.5469 8.729C17.4874 7.7619 18.0093 6.46345 17.9999 5.1145C17.9904 3.76554 17.4503 2.47453 16.4964 1.52071C15.5425 0.566881 14.2514 0.0269208 12.9024 0.0176181C11.5535 0.00831547 10.2551 0.530419 9.2881 1.471Z" fill="white"/>
</svg>
