<svg width="71" height="71" viewBox="0 0 71 71" fill="none" xmlns="http://www.w3.org/2000/svg">
<path d="M9.01811 52.0075L15.275 55.6167L18.8841 61.8735C19.2835 62.554 20.0231 62.9829 20.8071 62.9829H28.0254L34.2823 66.5921C34.6225 66.7844 35.0071 66.8879 35.3916 66.8879C35.7762 66.8879 36.1608 66.7844 36.501 66.5921L42.7579 62.9829H49.9762C50.7602 62.9829 51.4998 62.554 51.8992 61.8735L55.5083 55.6167L61.7652 52.0075C62.4456 51.6081 62.8746 50.8833 62.8746 50.0846V42.8662L66.4837 36.6094C66.8831 35.9289 66.8831 35.071 66.4837 34.3906L62.8746 28.1337V20.9154C62.8746 20.1314 62.4456 19.3919 61.7652 18.9925L55.5083 15.3833L51.8992 9.12644C51.4998 8.44603 50.775 8.01707 49.9762 8.01707H42.7579L36.501 4.4079C36.1642 4.21171 35.7814 4.10834 35.3916 4.10834C35.0019 4.10834 34.6191 4.21171 34.2823 4.4079L28.0254 8.01707H20.8071C20.0231 8.01707 19.2835 8.44603 18.8841 9.12644L15.275 15.3833L9.01811 18.9925C8.33769 19.3919 7.90873 20.1167 7.90873 20.9154V28.1337L4.29956 34.3906C4.10337 34.7274 4 35.1102 4 35.5C4 35.8898 4.10337 36.2726 4.29956 36.6094L7.90873 42.8662V50.0846C7.90873 50.8833 8.33769 51.6081 9.01811 52.0075ZM12.0504 29.8348C12.2427 29.4946 12.3462 29.11 12.3462 28.7254V22.1875L18.0114 18.9185C18.3516 18.7262 18.6327 18.4452 18.825 18.105L22.0791 12.4546H28.6171C29.0016 12.4546 29.3862 12.351 29.7264 12.1587L35.3916 8.88978L41.0569 12.1587C41.3971 12.351 41.7816 12.4546 42.1662 12.4546H48.7042L51.9731 18.1198C52.1654 18.46 52.4464 18.741 52.7866 18.9333L58.4371 22.1875V28.7254C58.4371 29.11 58.5406 29.4946 58.7329 29.8348L62.0019 35.5L58.7329 41.1652C58.5406 41.5054 58.4371 41.89 58.4371 42.2746V48.8125L52.7719 52.0814C52.4317 52.2737 52.1506 52.5548 51.9583 52.895L48.7042 58.5454H42.1662C41.7816 58.5454 41.3971 58.6489 41.0569 58.8412L35.3916 62.1102L29.7264 58.8412C29.3862 58.6489 29.0016 58.5454 28.6171 58.5454H22.0791L18.8102 52.8802C18.6179 52.54 18.3369 52.2589 17.9966 52.0667L12.3462 48.8125V42.2746C12.3462 41.89 12.2427 41.5054 12.0504 41.1652L8.78144 35.5L12.0504 29.8348Z" fill="url(#paint0_linear_13_447)"/>
<path d="M22.8518 43.5023C23.2363 44.2271 23.9907 44.6708 24.8043 44.6708C25.174 44.6708 25.529 44.5821 25.8397 44.4046L51.947 30.5004C53.0268 29.9235 53.4409 28.5775 52.864 27.4977C52.583 26.9652 52.1245 26.5806 51.5476 26.4179C50.9855 26.2404 50.3791 26.2996 49.8613 26.5806L25.7065 39.4494L21.1803 30.9589C20.8993 30.4412 20.4407 30.0566 19.8638 29.8791C19.3018 29.7016 18.6953 29.7608 18.1776 30.0419C17.0978 30.6187 16.6836 31.9648 17.2605 33.0446L22.8518 43.5023Z" fill="url(#paint1_linear_13_447)"/>
<defs>
<linearGradient id="paint0_linear_13_447" x1="35.3916" y1="4.10834" x2="35.3916" y2="66.8879" gradientUnits="userSpaceOnUse">
<stop stop-color="#FFC096"/>
<stop offset="1" stop-color="#FF7395"/>
</linearGradient>
<linearGradient id="paint1_linear_13_447" x1="35.0623" y1="26.3173" x2="35.0623" y2="44.6708" gradientUnits="userSpaceOnUse">
<stop stop-color="#FFC096"/>
<stop offset="1" stop-color="#FF7395"/>
</linearGradient>
</defs>
</svg>
