<svg width="14" height="14" viewBox="0 0 14 14" fill="none" xmlns="http://www.w3.org/2000/svg">
<path d="M11.3302 7.99447C11.1534 7.99447 10.9839 8.06469 10.8589 8.18968C10.7339 8.31466 10.6637 8.48419 10.6637 8.66095V8.91421L9.67733 7.92782C9.32904 7.58228 8.8583 7.38838 8.36769 7.38838C7.87707 7.38838 7.40634 7.58228 7.05805 7.92782L6.59151 8.39436L4.93864 6.74148C4.58548 6.40531 4.11657 6.21781 3.629 6.21781C3.14142 6.21781 2.67252 6.40531 2.31936 6.74148L1.33297 7.72787V3.99557C1.33297 3.81881 1.40318 3.64929 1.52817 3.5243C1.65316 3.39931 1.82269 3.32909 1.99945 3.32909H6.66483C6.84159 3.32909 7.01111 3.25887 7.1361 3.13388C7.26109 3.00889 7.33131 2.83937 7.33131 2.66261C7.33131 2.48584 7.26109 2.31632 7.1361 2.19133C7.01111 2.06634 6.84159 1.99612 6.66483 1.99612H1.99945C1.46916 1.99612 0.960594 2.20678 0.585625 2.58175C0.210656 2.95672 0 3.46529 0 3.99557V11.9934C0 12.5237 0.210656 13.0322 0.585625 13.4072C0.960594 13.7822 1.46916 13.9928 1.99945 13.9928H9.99724C10.5275 13.9928 11.0361 13.7822 11.4111 13.4072C11.786 13.0322 11.9967 12.5237 11.9967 11.9934V8.66095C11.9967 8.48419 11.9265 8.31466 11.8015 8.18968C11.6765 8.06469 11.507 7.99447 11.3302 7.99447ZM1.99945 12.6598C1.82269 12.6598 1.65316 12.5896 1.52817 12.4646C1.40318 12.3396 1.33297 12.1701 1.33297 11.9934V9.61402L3.26576 7.68122C3.36368 7.58791 3.49374 7.53586 3.629 7.53586C3.76425 7.53586 3.89432 7.58791 3.99223 7.68122L6.10498 9.79397L8.97086 12.6598H1.99945ZM10.6637 11.9934C10.6628 12.1209 10.6207 12.2448 10.5438 12.3466L7.53792 9.32743L8.00446 8.8609C8.05224 8.81213 8.10927 8.77338 8.17222 8.74693C8.23516 8.72049 8.30275 8.70686 8.37102 8.70686C8.4393 8.70686 8.50689 8.72049 8.56983 8.74693C8.63277 8.77338 8.68981 8.81213 8.73759 8.8609L10.6637 10.8004V11.9934ZM13.8029 2.1894L11.8034 0.189956C11.74 0.129279 11.6653 0.081716 11.5835 0.0499952C11.4212 -0.0166651 11.2392 -0.0166651 11.0769 0.0499952C10.9951 0.081716 10.9204 0.129279 10.857 0.189956L8.85755 2.1894C8.79541 2.25155 8.74612 2.32532 8.71249 2.40651C8.67886 2.4877 8.66155 2.57472 8.66155 2.66261C8.66155 2.84009 8.73205 3.01031 8.85755 3.13581C8.98306 3.26131 9.15327 3.33182 9.33076 3.33182C9.50824 3.33182 9.67846 3.26131 9.80396 3.13581L10.6637 2.26938V5.99502C10.6637 6.17178 10.7339 6.3413 10.8589 6.46629C10.9839 6.59128 11.1534 6.6615 11.3302 6.6615C11.507 6.6615 11.6765 6.59128 11.8015 6.46629C11.9265 6.3413 11.9967 6.17178 11.9967 5.99502V2.26938L12.8565 3.13581C12.9184 3.19828 12.9921 3.24786 13.0733 3.2817C13.1546 3.31553 13.2417 3.33295 13.3297 3.33295C13.4176 3.33295 13.5047 3.31553 13.586 3.2817C13.6672 3.24786 13.7409 3.19828 13.8029 3.13581C13.8653 3.07385 13.9149 3.00014 13.9487 2.91892C13.9826 2.8377 14 2.75059 14 2.66261C14 2.57462 13.9826 2.48751 13.9487 2.40629C13.9149 2.32508 13.8653 2.25136 13.8029 2.1894Z" fill="#9F9F9F"/>
</svg>
