<svg width="12" height="8" viewBox="0 0 12 8" fill="none" xmlns="http://www.w3.org/2000/svg">
<path d="M1.18945 3.5C0.913311 3.5 0.689453 3.72386 0.689453 4C0.689453 4.27614 0.913311 4.5 1.18945 4.5V3.5ZM11.5825 4.35355C11.7778 4.15829 11.7778 3.84171 11.5825 3.64645L8.40055 0.464466C8.20529 0.269204 7.88871 0.269204 7.69345 0.464466C7.49818 0.659728 7.49818 0.976311 7.69345 1.17157L10.5219 4L7.69345 6.82843C7.49818 7.02369 7.49818 7.34027 7.69345 7.53553C7.88871 7.7308 8.20529 7.7308 8.40055 7.53553L11.5825 4.35355ZM1.18945 4.5H11.229V3.5H1.18945V4.5Z" fill="white"/>
</svg>
